<?xml version="1.0" standalone="no"?><!DOCTYPE svg PUBLIC "-//W3C//DTD SVG 1.1//EN" "http://www.w3.org/Graphics/SVG/1.1/DTD/svg11.dtd"><svg t="1551836995602" class="icon" style="" viewBox="0 0 1024 1024" version="1.1" xmlns="http://www.w3.org/2000/svg" p-id="7671" xmlns:xlink="http://www.w3.org/1999/xlink" width="200" height="200"><defs><style type="text/css"></style></defs><path d="M744.96 427.861333c-4.778667-17.237333-6.485333-32.597333-6.656-46.592 0-48.64 18.602667-72.704 20.992-75.946667 5.461333-7.68 7.168-17.749333 2.901333-26.112-7.509333-14.506667-24.064-15.018667-27.136-15.018667-20.992-0.341333-116.736 5.461333-148.138667 103.594667-5.802667 18.602667-8.021333 36.352-8.533333 52.394667-12.458667-18.773333-23.04-45.738667-23.04-84.138667l0-3.925333c2.048-108.032 24.576-172.202667 24.064-172.544 3.072-9.045333 0.853333-19.114667-5.802667-25.941333-6.656-6.826667-16.554667-9.557333-25.770667-6.826667-1.536 0.682667-187.733333 53.930667-196.096 242.517333-0.341333 10.410667-0.512 20.48-0.512 29.866667 2.048 46.08 5.290667 80.554667 9.898667 106.496-20.138667-18.602667-37.546667-47.104-37.034667-89.941333 0-8.874667 2.048-28.842667 2.048-28.842667 1.194667-7.338667-0.512-15.189333-5.973333-21.162667-9.557333-10.410667-25.770667-11.264-36.181333-1.706667l-0.170667 0.170667c-2.56 2.389333-82.261333 75.434667-82.432 213.504 0 11.264 0.512 22.869333 1.706667 34.816 15.872 160.085333 158.378667 285.354667 318.634667 285.696 2.901333 0 5.632 0 8.362667-0.170667 162.986667-5.290667 290.645333-138.922667 291.498667-281.088l0-2.218667 0 0C820.906667 468.309333 752.64 478.890667 744.96 427.861333zM770.901333 616.96c0.853333 110.762667-106.666667 226.986667-241.664 229.888-2.389333 0.170667-4.608 0.170667-6.997333 0.170667-133.290667 0.512-255.317333-107.690667-267.776-239.445333-1.024-10.410667-1.536-20.48-1.536-30.037333 0-49.664 11.946667-88.405333 25.770667-116.906667 25.258667 103.936 129.877333 127.488 131.413333 127.658667 0 0 2.048 0.512 5.290667 0.682667 13.141333 0.341333 24.234667-9.728 25.770667-22.698667 1.194667-10.581333-12.629333-25.770667-12.629333-25.770667-5.802667-7.168-25.941333-41.130667-25.770667-141.312 0-8.874667 0.170667-18.261333 0.512-28.16 1.877333-95.744 68.266667-148.992 114.858667-174.762667-6.314667 32.426667-12.629333 78.336-13.653333 134.826667 0 1.536 0 3.242667 0 4.949333 0 125.952 93.696 168.618667 97.109333 169.472 9.386667 3.925333 19.968 2.048 27.477333-4.778667 7.338667-6.826667 10.069333-17.408 6.826667-26.965333 0 0-6.314667-18.602667-6.314667-46.08 0-13.824 1.877333-29.184 6.485333-44.885333 11.093333-36.693333 36.864-53.418667 60.074667-60.928-4.949333 16.213333-8.874667 36.010667-8.874667 59.392 0 18.432 2.389333 38.741333 8.533333 60.416 33.621333 96.597333 73.728 46.592 75.264 173.738667L771.072 616.96z" p-id="7672"></path></svg>