<?xml version="1.0" standalone="no"?><!DOCTYPE svg PUBLIC "-//W3C//DTD SVG 1.1//EN" "http://www.w3.org/Graphics/SVG/1.1/DTD/svg11.dtd"><svg t="1558942825322" class="icon" style="" viewBox="0 0 1024 1024" version="1.1" xmlns="http://www.w3.org/2000/svg" p-id="2197" xmlns:xlink="http://www.w3.org/1999/xlink" width="200" height="200"><defs><style type="text/css"></style></defs><path d="M1000.714909 15.289926A63.96388 63.96388 0 0 0 959.458206 0.258414a60.765686 60.765686 0 0 0-11.193679 0l-543.692983 95.945821A63.96388 63.96388 0 0 0 351.801342 160.168115v549.129913A205.643875 205.643875 0 0 0 230.589789 671.879158a255.855522 255.855522 0 0 0-80.914309 13.432415A223.873581 223.873581 0 0 0 15.99097 796.608725a152.553855 152.553855 0 0 0-6.716207 119.932276A180.697962 180.697962 0 0 0 185.175434 1023.6805a255.855522 255.855522 0 0 0 80.914308-13.432414 223.873581 223.873581 0 0 0 133.68451-111.297152A159.909701 159.909701 0 0 0 415.765223 831.788859V320.077816h11.193679L959.458206 224.131995v389.220213A205.643875 205.643875 0 0 0 838.246653 575.933338a255.855522 255.855522 0 0 0-80.914309 13.432415 223.873581 223.873581 0 0 0-133.68451 111.297151 152.553855 152.553855 0 0 0-6.716208 119.932276A180.378143 180.378143 0 0 0 793.152117 927.73468a255.855522 255.855522 0 0 0 80.914309-13.432415 223.873581 223.873581 0 0 0 133.36469-111.297152A159.909701 159.909701 0 0 0 1023.422086 735.843039V64.222294a63.96388 63.96388 0 0 0-22.707177-48.932368zM245.94112 949.802219c-76.756656 25.585552-155.752049 0-176.860129-55.648576s23.986455-122.490831 100.743111-148.076384 155.752049 0 176.86013 55.648576-23.986455 122.490831-100.743112 148.076384z m607.656864-95.945821c-76.756656 25.585552-155.752049 0-176.860129-55.648576s23.986455-122.490831 100.743111-148.076383 155.752049 0 176.86013 55.648576-26.86483 122.490831-102.02239 148.076383zM959.458206 160.168115L415.765223 256.113936V160.168115l543.692983-95.945821v95.945821z" fill="#ffffff" p-id="2198"></path></svg>